# This file uses centimeters as units for non-parametric coordinates.

mtllib Wire-Broken2.mtl
g default
v -0.047300 2.406866 0.031608
v -0.025009 2.406866 0.044478
v -0.069634 2.491026 0.070292
v -0.047343 2.491026 0.083162
v -0.058489 2.505026 0.050988
v -0.036198 2.505026 0.063857
v -0.036154 2.420865 0.012304
v -0.013863 2.420865 0.025173
v -0.013337 2.419228 -0.022020
v -0.026389 2.405643 -0.040355
v -0.043005 2.504034 -0.054003
v -0.056057 2.490449 -0.072338
v -0.063476 2.502494 -0.038465
v -0.076528 2.488909 -0.056800
v -0.033808 2.417688 -0.006482
v -0.046861 2.404103 -0.024817
v -0.026766 2.439676 -0.016812
v -0.048865 2.426091 -0.012551
v -0.068179 2.524482 -0.003101
v -0.090279 2.510897 0.001161
v -0.062543 2.522942 0.021974
v -0.084643 2.509357 0.026236
v -0.021130 2.438136 0.008262
v -0.043229 2.424551 0.012524
v 0.001273 2.438513 -0.023338
v -0.018219 2.424928 -0.012087
v -0.033384 2.523319 0.003157
v -0.052876 2.509734 0.014408
v -0.019861 2.521778 0.025012
v -0.039353 2.508193 0.036263
v 0.014796 2.436972 -0.001483
v -0.004697 2.423387 0.009768
v 0.017066 2.434942 -0.029160
v -0.004565 2.421357 -0.035376
v -0.026064 2.519748 -0.035705
v -0.047696 2.506163 -0.041921
v -0.032403 2.518207 -0.010799
v -0.054035 2.504622 -0.017014
v 0.010727 2.433401 -0.004254
v -0.010904 2.419816 -0.010470
v 0.022857 2.422529 -0.005175
v 0.044388 2.408530 -0.010944
v 0.066003 2.506689 -0.016736
v 0.087535 2.492690 -0.022505
v 0.059342 2.506689 -0.041598
v 0.080873 2.492690 -0.047368
v 0.016195 2.422529 -0.030037
v 0.037726 2.408530 -0.035807
v 0.005342 2.443354 -0.004015
v 0.029356 2.436108 -0.010452
v 0.027878 2.537219 -0.009238
v 0.051893 2.529973 -0.015675
v 0.021272 2.537458 -0.034114
v 0.045286 2.530212 -0.040551
v -0.001265 2.443593 -0.028891
v 0.022750 2.436347 -0.035328
v 0.001322 2.428826 0.022725
v 0.026184 2.421826 0.021000
v 0.024444 2.519496 0.045059
v 0.049306 2.512496 0.043335
v 0.024444 2.526743 0.020197
v 0.049306 2.519743 0.018472
v 0.001322 2.436072 -0.002138
v 0.026184 2.429073 -0.003862
v 0.018385 2.422529 0.033468
v 0.040676 2.408530 0.033468
v 0.063054 2.506689 0.033468
v 0.085345 2.492690 0.033468
v 0.063054 2.506689 0.007729
v 0.085345 2.492690 0.007729
v 0.018385 2.422529 0.007729
v 0.040676 2.408530 0.007729
v -0.013035 2.418113 0.046181
v 0.012704 2.418113 0.046181
v -0.013035 2.502273 0.090850
v 0.012704 2.502273 0.090850
v -0.013035 2.516273 0.068559
v 0.012704 2.516273 0.068559
v -0.013035 2.432113 0.023890
v 0.012704 2.432113 0.023890
v -0.013035 2.444582 -0.019870
v 0.012704 2.444582 -0.019870
v -0.013035 2.528742 -0.064538
v 0.012704 2.528742 -0.064538
v -0.013035 2.514743 -0.086829
v 0.012704 2.514743 -0.086829
v -0.013035 2.430582 -0.042161
v 0.012704 2.430582 -0.042161
vt 0.375000 0.000000
vt 0.625000 0.000000
vt 0.375000 0.250000
vt 0.625000 0.250000
vt 0.375000 0.500000
vt 0.625000 0.500000
vt 0.375000 0.750000
vt 0.625000 0.750000
vt 0.375000 1.000000
vt 0.625000 1.000000
vt 0.875000 0.000000
vt 0.875000 0.250000
vt 0.125000 0.000000
vt 0.125000 0.250000
vt 0.375000 0.000000
vt 0.625000 0.000000
vt 0.625000 0.250000
vt 0.375000 0.250000
vt 0.625000 0.500000
vt 0.375000 0.500000
vt 0.625000 0.750000
vt 0.375000 0.750000
vt 0.625000 1.000000
vt 0.375000 1.000000
vt 0.875000 0.000000
vt 0.875000 0.250000
vt 0.125000 0.000000
vt 0.125000 0.250000
vt 0.375000 0.000000
vt 0.625000 0.000000
vt 0.625000 0.250000
vt 0.375000 0.250000
vt 0.625000 0.500000
vt 0.375000 0.500000
vt 0.625000 0.750000
vt 0.375000 0.750000
vt 0.625000 1.000000
vt 0.375000 1.000000
vt 0.875000 0.000000
vt 0.875000 0.250000
vt 0.125000 0.000000
vt 0.125000 0.250000
vt 0.375000 0.000000
vt 0.625000 0.000000
vt 0.625000 0.250000
vt 0.375000 0.250000
vt 0.625000 0.500000
vt 0.375000 0.500000
vt 0.625000 0.750000
vt 0.375000 0.750000
vt 0.625000 1.000000
vt 0.375000 1.000000
vt 0.875000 0.000000
vt 0.875000 0.250000
vt 0.125000 0.000000
vt 0.125000 0.250000
vt 0.375000 0.000000
vt 0.625000 0.000000
vt 0.625000 0.250000
vt 0.375000 0.250000
vt 0.625000 0.500000
vt 0.375000 0.500000
vt 0.625000 0.750000
vt 0.375000 0.750000
vt 0.625000 1.000000
vt 0.375000 1.000000
vt 0.875000 0.000000
vt 0.875000 0.250000
vt 0.125000 0.000000
vt 0.125000 0.250000
vt 0.375000 0.000000
vt 0.625000 0.000000
vt 0.625000 0.250000
vt 0.375000 0.250000
vt 0.625000 0.500000
vt 0.375000 0.500000
vt 0.625000 0.750000
vt 0.375000 0.750000
vt 0.625000 1.000000
vt 0.375000 1.000000
vt 0.875000 0.000000
vt 0.875000 0.250000
vt 0.125000 0.000000
vt 0.125000 0.250000
vt 0.375000 0.000000
vt 0.625000 0.000000
vt 0.625000 0.250000
vt 0.375000 0.250000
vt 0.625000 0.500000
vt 0.375000 0.500000
vt 0.625000 0.750000
vt 0.375000 0.750000
vt 0.625000 1.000000
vt 0.375000 1.000000
vt 0.875000 0.000000
vt 0.875000 0.250000
vt 0.125000 0.000000
vt 0.125000 0.250000
vt 0.375000 0.000000
vt 0.625000 0.000000
vt 0.625000 0.250000
vt 0.375000 0.250000
vt 0.625000 0.500000
vt 0.375000 0.500000
vt 0.625000 0.750000
vt 0.375000 0.750000
vt 0.625000 1.000000
vt 0.375000 1.000000
vt 0.875000 0.000000
vt 0.875000 0.250000
vt 0.125000 0.000000
vt 0.125000 0.250000
vt 0.375000 0.000000
vt 0.625000 0.000000
vt 0.625000 0.250000
vt 0.375000 0.250000
vt 0.625000 0.500000
vt 0.375000 0.500000
vt 0.625000 0.750000
vt 0.375000 0.750000
vt 0.625000 1.000000
vt 0.375000 1.000000
vt 0.875000 0.000000
vt 0.875000 0.250000
vt 0.125000 0.000000
vt 0.125000 0.250000
vt 0.375000 0.000000
vt 0.625000 0.000000
vt 0.625000 0.250000
vt 0.375000 0.250000
vt 0.625000 0.500000
vt 0.375000 0.500000
vt 0.625000 0.750000
vt 0.375000 0.750000
vt 0.625000 1.000000
vt 0.375000 1.000000
vt 0.875000 0.000000
vt 0.875000 0.250000
vt 0.125000 0.000000
vt 0.125000 0.250000
vt 0.375000 0.000000
vt 0.625000 0.000000
vt 0.625000 0.250000
vt 0.375000 0.250000
vt 0.625000 0.500000
vt 0.375000 0.500000
vt 0.625000 0.750000
vt 0.375000 0.750000
vt 0.625000 1.000000
vt 0.375000 1.000000
vt 0.875000 0.000000
vt 0.875000 0.250000
vt 0.125000 0.000000
vt 0.125000 0.250000
vn -0.441647 -0.468816 0.764957
vn -0.441647 -0.468816 0.764957
vn -0.441647 -0.468816 0.764957
vn -0.441647 -0.468816 0.764957
vn -0.265923 0.846845 0.460585
vn -0.265923 0.846845 0.460585
vn -0.265923 0.846845 0.460585
vn -0.265923 0.846845 0.460585
vn 0.441648 0.468816 -0.764956
vn 0.441648 0.468816 -0.764956
vn 0.441648 0.468816 -0.764956
vn 0.441648 0.468816 -0.764956
vn 0.265922 -0.846841 -0.460593
vn 0.265922 -0.846841 -0.460593
vn 0.265922 -0.846841 -0.460593
vn 0.265922 -0.846841 -0.460593
vn 0.866026 0.000000 0.499999
vn 0.866026 0.000000 0.499999
vn 0.866026 0.000000 0.499999
vn 0.866026 0.000000 0.499999
vn -0.866026 0.000000 -0.499998
vn -0.866026 0.000000 -0.499998
vn -0.866026 0.000000 -0.499998
vn -0.866026 0.000000 -0.499998
vn 0.795529 0.050590 -0.603800
vn 0.795529 0.050590 -0.603800
vn 0.795529 0.050590 -0.603800
vn 0.795529 0.050590 -0.603800
vn -0.353597 0.854205 -0.381187
vn -0.353597 0.854205 -0.381187
vn -0.353597 0.854205 -0.381187
vn -0.353597 0.854205 -0.381187
vn -0.795530 -0.050590 0.603798
vn -0.795530 -0.050590 0.603798
vn -0.795530 -0.050590 0.603798
vn -0.795530 -0.050590 0.603798
vn 0.353596 -0.854203 0.381191
vn 0.353596 -0.854203 0.381191
vn 0.353596 -0.854203 0.381191
vn 0.353596 -0.854203 0.381191
vn -0.516607 -0.454409 -0.725693
vn -0.516607 -0.454409 -0.725693
vn -0.516607 -0.454409 -0.725693
vn -0.516607 -0.454409 -0.725693
vn 0.516605 0.454407 0.725695
vn 0.516605 0.454407 0.725695
vn 0.516605 0.454407 0.725695
vn 0.516605 0.454407 0.725695
vn -0.219011 0.050589 -0.974410
vn -0.219011 0.050589 -0.974410
vn -0.219011 0.050589 -0.974410
vn -0.219011 0.050589 -0.974410
vn -0.493591 0.854204 0.163412
vn -0.493591 0.854204 0.163412
vn -0.493591 0.854204 0.163412
vn -0.493591 0.854204 0.163412
vn 0.219011 -0.050589 0.974410
vn 0.219011 -0.050589 0.974410
vn 0.219011 -0.050589 0.974410
vn 0.219011 -0.050589 0.974410
vn 0.493590 -0.854203 -0.163419
vn 0.493590 -0.854203 -0.163419
vn 0.493590 -0.854203 -0.163419
vn 0.493590 -0.854203 -0.163419
vn -0.874677 -0.454407 0.168681
vn -0.874678 -0.454407 0.168681
vn -0.874677 -0.454407 0.168681
vn -0.874678 -0.454407 0.168681
vn 0.874677 0.454407 -0.168684
vn 0.874677 0.454407 -0.168684
vn 0.874677 0.454407 -0.168684
vn 0.874677 0.454407 -0.168684
vn -0.525494 0.050590 -0.849292
vn -0.525494 0.050590 -0.849292
vn -0.525494 0.050590 -0.849292
vn -0.525494 0.050590 -0.849292
vn -0.413060 0.854204 0.315778
vn -0.413060 0.854204 0.315778
vn -0.413060 0.854204 0.315778
vn -0.413060 0.854204 0.315778
vn 0.525492 -0.050590 0.849293
vn 0.525492 -0.050590 0.849293
vn 0.525492 -0.050590 0.849293
vn 0.525492 -0.050590 0.849293
vn 0.413061 -0.854206 -0.315774
vn 0.413061 -0.854206 -0.315774
vn 0.413061 -0.854206 -0.315774
vn 0.413061 -0.854206 -0.315774
vn -0.771492 -0.454407 0.445326
vn -0.771492 -0.454407 0.445326
vn -0.771492 -0.454407 0.445326
vn -0.771492 -0.454407 0.445326
vn 0.771490 0.454406 -0.445330
vn 0.771490 0.454406 -0.445330
vn 0.771490 0.454406 -0.445330
vn 0.771490 0.454406 -0.445330
vn 0.246336 0.050590 -0.967863
vn 0.246336 0.050590 -0.967863
vn 0.246336 0.050590 -0.967863
vn 0.246336 0.050590 -0.967863
vn -0.514054 0.854203 -0.078009
vn -0.514054 0.854203 -0.078009
vn -0.514054 0.854203 -0.078009
vn -0.514054 0.854203 -0.078009
vn -0.246336 -0.050590 0.967863
vn -0.246336 -0.050590 0.967863
vn -0.246336 -0.050590 0.967863
vn -0.246336 -0.050590 0.967863
vn 0.514055 -0.854203 0.078004
vn 0.514055 -0.854203 0.078004
vn 0.514055 -0.854203 0.078004
vn 0.514055 -0.854203 0.078004
vn -0.856152 -0.454407 -0.246005
vn -0.856152 -0.454407 -0.246005
vn -0.856152 -0.454407 -0.246005
vn -0.856152 -0.454407 -0.246005
vn 0.856151 0.454407 0.246007
vn 0.856151 0.454407 0.246007
vn 0.856151 0.454407 0.246007
vn 0.856151 0.454407 0.246007
vn 0.258819 -0.000000 0.965926
vn 0.258819 -0.000000 0.965926
vn 0.258819 -0.000000 0.965926
vn 0.258819 -0.000000 0.965926
vn 0.513722 0.846842 -0.137653
vn 0.513722 0.846842 -0.137653
vn 0.513722 0.846842 -0.137653
vn 0.513722 0.846842 -0.137653
vn -0.258819 0.000000 -0.965926
vn -0.258819 0.000000 -0.965926
vn -0.258819 0.000000 -0.965926
vn -0.258819 0.000000 -0.965926
vn -0.513722 -0.846842 0.137655
vn -0.513722 -0.846842 0.137655
vn -0.513722 -0.846842 0.137655
vn -0.513722 -0.846842 0.137655
vn 0.853198 -0.468816 -0.228614
vn 0.853198 -0.468816 -0.228614
vn 0.853198 -0.468816 -0.228614
vn 0.853198 -0.468816 -0.228614
vn -0.853199 0.468816 0.228612
vn -0.853199 0.468816 0.228612
vn -0.853199 0.468816 0.228612
vn -0.853199 0.468816 0.228612
vn 0.256676 -0.007849 0.966466
vn 0.256676 -0.007849 0.966466
vn 0.256676 -0.007849 0.966466
vn 0.256676 -0.007849 0.966466
vn 0.272736 0.960010 -0.063209
vn 0.272736 0.960010 -0.063209
vn 0.272736 0.960010 -0.063209
vn 0.272736 0.960010 -0.063209
vn -0.256676 0.007849 -0.966466
vn -0.256676 0.007849 -0.966466
vn -0.256676 0.007849 -0.966466
vn -0.256676 0.007849 -0.966466
vn -0.272736 -0.960010 0.063209
vn -0.272736 -0.960010 0.063209
vn -0.272736 -0.960010 0.063209
vn -0.272736 -0.960010 0.063209
vn 0.937874 -0.239167 -0.251380
vn 0.937874 -0.239167 -0.251380
vn 0.937874 -0.239167 -0.251380
vn 0.937874 -0.239167 -0.251380
vn -0.937874 0.239167 0.251380
vn -0.937874 0.239167 0.251380
vn -0.937874 0.239167 0.251380
vn -0.937874 0.239167 0.251380
vn 0.000000 -0.239176 0.970976
vn 0.000000 -0.239176 0.970976
vn 0.000000 -0.239176 0.970976
vn 0.000000 -0.239176 0.970976
vn 0.278257 0.922134 0.268779
vn 0.278257 0.922134 0.268779
vn 0.278257 0.922134 0.268779
vn 0.278257 0.922134 0.268779
vn -0.000000 0.239175 -0.970976
vn -0.000000 0.239175 -0.970976
vn -0.000000 0.239175 -0.970976
vn -0.000000 0.239175 -0.970976
vn -0.278257 -0.922134 -0.268779
vn -0.278257 -0.922134 -0.268779
vn -0.278257 -0.922134 -0.268779
vn -0.278257 -0.922134 -0.268779
vn 0.970636 -0.230944 -0.067315
vn 0.970636 -0.230944 -0.067315
vn 0.970636 -0.230944 -0.067315
vn 0.970636 -0.230944 -0.067315
vn -0.970635 0.230944 0.067317
vn -0.970635 0.230944 0.067317
vn -0.970635 0.230944 0.067317
vn -0.970635 0.230944 0.067317
vn -0.000000 0.000000 1.000000
vn -0.000000 0.000000 1.000000
vn -0.000000 0.000000 1.000000
vn -0.000000 0.000000 1.000000
vn 0.531845 0.846842 0.000000
vn 0.531845 0.846842 0.000000
vn 0.531845 0.846842 0.000000
vn 0.531845 0.846842 0.000000
vn 0.000000 0.000000 -1.000000
vn 0.000000 0.000000 -1.000000
vn 0.000000 0.000000 -1.000000
vn 0.000000 0.000000 -1.000000
vn -0.531844 -0.846842 0.000000
vn -0.531844 -0.846842 0.000000
vn -0.531844 -0.846842 0.000000
vn -0.531844 -0.846842 0.000000
vn 0.883296 -0.468816 0.000000
vn 0.883296 -0.468816 0.000000
vn 0.883296 -0.468816 0.000000
vn 0.883296 -0.468816 0.000000
vn -0.883296 0.468816 0.000000
vn -0.883296 0.468816 0.000000
vn -0.883296 0.468816 0.000000
vn -0.883296 0.468816 0.000000
vn 0.000000 -0.468816 0.883296
vn 0.000000 -0.468816 0.883296
vn 0.000000 -0.468816 0.883296
vn 0.000000 -0.468816 0.883296
vn 0.000000 0.846843 0.531843
vn 0.000000 0.846843 0.531843
vn 0.000000 0.846843 0.531843
vn 0.000000 0.846843 0.531843
vn 0.000000 0.468816 -0.883296
vn 0.000000 0.468816 -0.883296
vn 0.000000 0.468816 -0.883296
vn 0.000000 0.468816 -0.883296
vn 0.000000 -0.846843 -0.531843
vn 0.000000 -0.846843 -0.531843
vn 0.000000 -0.846843 -0.531843
vn 0.000000 -0.846843 -0.531843
vn 1.000000 0.000000 0.000000
vn 1.000000 0.000000 0.000000
vn 1.000000 0.000000 0.000000
vn 1.000000 0.000000 0.000000
vn -1.000000 0.000000 0.000000
vn -1.000000 0.000000 0.000000
vn -1.000000 0.000000 0.000000
vn -1.000000 0.000000 0.000000
vn 0.000000 0.468816 0.883296
vn 0.000000 0.468816 0.883296
vn 0.000000 0.468816 0.883296
vn 0.000000 0.468816 0.883296
vn 0.000000 0.846839 -0.531850
vn 0.000000 0.846839 -0.531850
vn 0.000000 0.846839 -0.531850
vn 0.000000 0.846839 -0.531850
vn 0.000000 -0.468817 -0.883295
vn 0.000000 -0.468817 -0.883295
vn 0.000000 -0.468817 -0.883295
vn 0.000000 -0.468817 -0.883295
vn 0.000000 -0.846843 0.531843
vn 0.000000 -0.846843 0.531843
vn 0.000000 -0.846843 0.531843
vn 0.000000 -0.846843 0.531843
vn 1.000000 0.000000 0.000000
vn 1.000000 0.000000 0.000000
vn 1.000000 0.000000 0.000000
vn 1.000000 0.000000 0.000000
vn -1.000000 0.000000 0.000000
vn -1.000000 0.000000 0.000000
vn -1.000000 0.000000 0.000000
vn -1.000000 0.000000 0.000000
s off
g pCube13
usemtl initialShadingGroup
f 1/1/1 2/2/2 4/4/3 3/3/4
f 3/3/5 4/4/6 6/6/7 5/5/8
f 5/5/9 6/6/10 8/8/11 7/7/12
f 7/7/13 8/8/14 2/10/15 1/9/16
f 2/2/17 8/11/18 6/12/19 4/4/20
f 7/13/21 1/1/22 3/3/23 5/14/24
f 9/15/25 10/16/26 12/17/27 11/18/28
f 11/18/29 12/17/30 14/19/31 13/20/32
f 13/20/33 14/19/34 16/21/35 15/22/36
f 15/22/37 16/21/38 10/23/39 9/24/40
f 10/16/41 16/25/42 14/26/43 12/17/44
f 15/27/45 9/15/46 11/18/47 13/28/48
f 17/29/49 18/30/50 20/31/51 19/32/52
f 19/32/53 20/31/54 22/33/55 21/34/56
f 21/34/57 22/33/58 24/35/59 23/36/60
f 23/36/61 24/35/62 18/37/63 17/38/64
f 18/30/65 24/39/66 22/40/67 20/31/68
f 23/41/69 17/29/70 19/32/71 21/42/72
f 25/43/73 26/44/74 28/45/75 27/46/76
f 27/46/77 28/45/78 30/47/79 29/48/80
f 29/48/81 30/47/82 32/49/83 31/50/84
f 31/50/85 32/49/86 26/51/87 25/52/88
f 26/44/89 32/53/90 30/54/91 28/45/92
f 31/55/93 25/43/94 27/46/95 29/56/96
f 33/57/97 34/58/98 36/59/99 35/60/100
f 35/60/101 36/59/102 38/61/103 37/62/104
f 37/62/105 38/61/106 40/63/107 39/64/108
f 39/64/109 40/63/110 34/65/111 33/66/112
f 34/58/113 40/67/114 38/68/115 36/59/116
f 39/69/117 33/57/118 35/60/119 37/70/120
f 41/71/121 42/72/122 44/73/123 43/74/124
f 43/74/125 44/73/126 46/75/127 45/76/128
f 45/76/129 46/75/130 48/77/131 47/78/132
f 47/78/133 48/77/134 42/79/135 41/80/136
f 42/72/137 48/81/138 46/82/139 44/73/140
f 47/83/141 41/71/142 43/74/143 45/84/144
f 49/85/145 50/86/146 52/87/147 51/88/148
f 51/88/149 52/87/150 54/89/151 53/90/152
f 53/90/153 54/89/154 56/91/155 55/92/156
f 55/92/157 56/91/158 50/93/159 49/94/160
f 50/86/161 56/95/162 54/96/163 52/87/164
f 55/97/165 49/85/166 51/88/167 53/98/168
f 57/99/169 58/100/170 60/101/171 59/102/172
f 59/102/173 60/101/174 62/103/175 61/104/176
f 61/104/177 62/103/178 64/105/179 63/106/180
f 63/106/181 64/105/182 58/107/183 57/108/184
f 58/100/185 64/109/186 62/110/187 60/101/188
f 63/111/189 57/99/190 59/102/191 61/112/192
f 65/113/193 66/114/194 68/115/195 67/116/196
f 67/116/197 68/115/198 70/117/199 69/118/200
f 69/118/201 70/117/202 72/119/203 71/120/204
f 71/120/205 72/119/206 66/121/207 65/122/208
f 66/114/209 72/123/210 70/124/211 68/115/212
f 71/125/213 65/113/214 67/116/215 69/126/216
f 73/127/217 74/128/218 76/129/219 75/130/220
f 75/130/221 76/129/222 78/131/223 77/132/224
f 77/132/225 78/131/226 80/133/227 79/134/228
f 79/134/229 80/133/230 74/135/231 73/136/232
f 74/128/233 80/137/234 78/138/235 76/129/236
f 79/139/237 73/127/238 75/130/239 77/140/240
f 81/141/241 82/142/242 84/143/243 83/144/244
f 83/144/245 84/143/246 86/145/247 85/146/248
f 85/146/249 86/145/250 88/147/251 87/148/252
f 87/148/253 88/147/254 82/149/255 81/150/256
f 82/142/257 88/151/258 86/152/259 84/143/260
f 87/153/261 81/141/262 83/144/263 85/154/264
g default
v -0.059251 1.725670 0.059251
v 0.059251 1.725670 0.059251
v -0.059251 1.933897 0.059251
v 0.059251 1.933897 0.059251
v -0.059251 1.933897 -0.059251
v 0.059251 1.933897 -0.059251
v -0.059251 1.725670 -0.059251
v 0.059251 1.725670 -0.059251
v -0.059251 1.203261 0.059251
v 0.059251 1.203261 0.059251
v -0.059251 2.456306 0.059251
v 0.059251 2.456306 0.059251
v -0.059251 2.456306 -0.059251
v 0.059251 2.456306 -0.059251
v -0.059251 1.203261 -0.059251
v 0.059251 1.203261 -0.059251
vt 0.375000 0.000000
vt 0.625000 0.000000
vt 0.375000 0.250000
vt 0.625000 0.250000
vt 0.375000 0.500000
vt 0.625000 0.500000
vt 0.375000 0.750000
vt 0.625000 0.750000
vt 0.375000 1.000000
vt 0.625000 1.000000
vt 0.875000 0.000000
vt 0.875000 0.250000
vt 0.125000 0.000000
vt 0.125000 0.250000
vt 0.375000 0.000000
vt 0.625000 0.000000
vt 0.625000 0.250000
vt 0.375000 0.250000
vt 0.625000 0.500000
vt 0.375000 0.500000
vt 0.625000 0.750000
vt 0.375000 0.750000
vt 0.625000 1.000000
vt 0.375000 1.000000
vt 0.875000 0.000000
vt 0.875000 0.250000
vt 0.125000 0.000000
vt 0.125000 0.250000
vn 0.000000 0.000000 1.000000
vn 0.000000 0.000000 1.000000
vn 0.000000 0.000000 1.000000
vn 0.000000 0.000000 1.000000
vn 0.000000 1.000000 0.000000
vn 0.000000 1.000000 0.000000
vn 0.000000 1.000000 0.000000
vn 0.000000 1.000000 0.000000
vn 0.000000 0.000000 -1.000000
vn 0.000000 0.000000 -1.000000
vn 0.000000 0.000000 -1.000000
vn 0.000000 0.000000 -1.000000
vn 0.000000 -1.000000 0.000000
vn 0.000000 -1.000000 0.000000
vn 0.000000 -1.000000 0.000000
vn 0.000000 -1.000000 0.000000
vn 1.000000 0.000000 0.000000
vn 1.000000 0.000000 0.000000
vn 1.000000 0.000000 0.000000
vn 1.000000 0.000000 0.000000
vn -1.000000 0.000000 0.000000
vn -1.000000 0.000000 0.000000
vn -1.000000 0.000000 0.000000
vn -1.000000 0.000000 0.000000
vn 0.000000 0.000000 1.000000
vn 0.000000 0.000000 1.000000
vn 0.000000 0.000000 1.000000
vn 0.000000 0.000000 1.000000
vn 0.000000 1.000000 0.000000
vn 0.000000 1.000000 0.000000
vn 0.000000 1.000000 0.000000
vn 0.000000 1.000000 0.000000
vn 0.000000 0.000000 -1.000000
vn 0.000000 0.000000 -1.000000
vn 0.000000 0.000000 -1.000000
vn 0.000000 0.000000 -1.000000
vn 0.000000 -1.000000 0.000000
vn 0.000000 -1.000000 0.000000
vn 0.000000 -1.000000 0.000000
vn 0.000000 -1.000000 0.000000
vn 1.000000 0.000000 0.000000
vn 1.000000 0.000000 0.000000
vn 1.000000 0.000000 0.000000
vn 1.000000 0.000000 0.000000
vn -1.000000 0.000000 0.000000
vn -1.000000 0.000000 0.000000
vn -1.000000 0.000000 0.000000
vn -1.000000 0.000000 0.000000
s off
g pCube15
usemtl initialShadingGroup
f 89/155/265 90/156/266 92/158/267 91/157/268
f 91/157/269 92/158/270 94/160/271 93/159/272
f 93/159/273 94/160/274 96/162/275 95/161/276
f 95/161/277 96/162/278 90/164/279 89/163/280
f 90/156/281 96/165/282 94/166/283 92/158/284
f 95/167/285 89/155/286 91/157/287 93/168/288
f 97/169/289 98/170/290 100/171/291 99/172/292
f 99/172/293 100/171/294 102/173/295 101/174/296
f 101/174/297 102/173/298 104/175/299 103/176/300
f 103/176/301 104/175/302 98/177/303 97/178/304
f 98/170/305 104/179/306 102/180/307 100/171/308
f 103/181/309 97/169/310 99/172/311 101/182/312
