# This file uses centimeters as units for non-parametric coordinates.

mtllib PotionFilling2.mtl
g default
v -0.317670 0.098846 0.317670
v 0.317670 0.098846 0.317670
v -0.500000 0.500000 0.500000
v 0.500000 0.500000 0.500000
v -0.500000 0.500000 -0.500000
v 0.500000 0.500000 -0.500000
v -0.317670 0.098846 -0.317670
v 0.317670 0.098846 -0.317670
v -0.330876 1.449386 0.330876
v 0.330876 1.449386 0.330876
v 0.330876 1.449386 -0.330876
v -0.330876 1.449386 -0.330876
v -0.164978 1.630413 0.164978
v 0.164978 1.630413 0.164978
v 0.164978 1.630413 -0.164978
v -0.164978 1.630413 -0.164978
vt 0.375000 0.000000
vt 0.625000 0.000000
vt 0.375000 0.250000
vt 0.625000 0.250000
vt 0.375000 0.500000
vt 0.625000 0.500000
vt 0.375000 0.750000
vt 0.625000 0.750000
vt 0.375000 1.000000
vt 0.625000 1.000000
vt 0.875000 0.000000
vt 0.875000 0.250000
vt 0.125000 0.000000
vt 0.125000 0.250000
vt 0.375000 0.250000
vt 0.625000 0.250000
vt 0.625000 0.500000
vt 0.375000 0.500000
vt 0.375000 0.250000
vt 0.625000 0.250000
vt 0.625000 0.500000
vt 0.375000 0.500000
vn 0.000000 -0.413778 0.910378
vn 0.000000 -0.413778 0.910378
vn 0.000000 -0.413778 0.910378
vn 0.000000 -0.413778 0.910378
vn 0.000000 1.000000 0.000000
vn 0.000000 1.000000 0.000000
vn 0.000000 1.000000 0.000000
vn 0.000000 1.000000 0.000000
vn 0.000000 -0.413778 -0.910378
vn 0.000000 -0.413778 -0.910378
vn 0.000000 -0.413778 -0.910378
vn 0.000000 -0.413778 -0.910378
vn 0.000000 -1.000000 0.000000
vn 0.000000 -1.000000 0.000000
vn 0.000000 -1.000000 0.000000
vn 0.000000 -1.000000 0.000000
vn 0.910378 -0.413778 0.000000
vn 0.910378 -0.413778 0.000000
vn 0.910378 -0.413778 0.000000
vn 0.910378 -0.413778 0.000000
vn -0.910378 -0.413778 0.000000
vn -0.910378 -0.413778 0.000000
vn -0.910378 -0.413778 0.000000
vn -0.910378 -0.413778 0.000000
vn 0.000000 0.175379 0.984501
vn 0.000000 0.175379 0.984501
vn 0.000000 0.217057 0.976159
vn 0.000000 0.217057 0.976159
vn 0.984501 0.175379 0.000000
vn 0.984501 0.175379 0.000000
vn 0.976159 0.217057 0.000000
vn 0.976159 0.217057 0.000000
vn 0.000000 0.175379 -0.984501
vn 0.000000 0.175379 -0.984501
vn 0.000000 0.217057 -0.976159
vn 0.000000 0.217057 -0.976159
vn -0.984501 0.175379 0.000000
vn -0.984501 0.175379 0.000000
vn -0.976159 0.217057 0.000000
vn -0.976159 0.217057 0.000000
vn 0.000000 0.675629 0.737241
vn 0.000000 0.675629 0.737241
vn 0.737241 0.675630 0.000000
vn 0.737241 0.675630 0.000000
vn 0.000000 0.675629 -0.737241
vn 0.000000 0.675629 -0.737241
vn -0.737241 0.675630 0.000000
vn -0.737241 0.675630 0.000000
s off
g pCube1
usemtl initialShadingGroup
f 1/1/1 2/2/2 4/4/3 3/3/4
f 13/19/5 14/20/6 15/21/7 16/22/8
f 5/5/9 6/6/10 8/8/11 7/7/12
f 7/7/13 8/8/14 2/10/15 1/9/16
f 2/2/17 8/11/18 6/12/19 4/4/20
f 7/13/21 1/1/22 3/3/23 5/14/24
s 1
f 3/3/25 4/4/26 10/16/27 9/15/28
s 2
f 4/4/29 6/6/30 11/17/31 10/16/32
s 3
f 6/6/33 5/5/34 12/18/35 11/17/36
s 4
f 5/5/37 3/3/38 9/15/39 12/18/40
s 1
f 9/15/28 10/16/27 14/20/41 13/19/42
s 2
f 10/16/32 11/17/31 15/21/43 14/20/44
s 3
f 11/17/36 12/18/35 16/22/45 15/21/46
s 4
f 12/18/40 9/15/39 13/19/47 16/22/48
